<svg width="150" height="46" viewBox="0 0 150 46" fill="none" xmlns="http://www.w3.org/2000/svg">
<path d="M29 3.5H7.5V1.5H32L16.5 44L1 1.5H3.5L16.5 37.5L29 3.5Z" fill="#594CDA"/>
<path d="M7.5 1V1.5M7.5 1.5V3.5H29L16.5 37.5L3.5 1.5H1L16.5 44L32 1.5H7.5Z" stroke="#594CDA"/>
<path d="M36.0895 42.5L57.5895 42.5V44.5L33.0895 44.5L48.5895 2L64.0895 44.5H61.5895L48.5895 8.5L36.0895 42.5Z" fill="#594CDA"/>
<path d="M57.5895 45V44.5M57.5895 44.5V42.5L36.0895 42.5L48.5895 8.5L61.5895 44.5H64.0895L48.5895 2L33.0895 44.5L57.5895 44.5Z" stroke="#594CDA"/>
<path d="M121 42.5L142.5 42.5V44.5L118 44.5L133.5 2L149 44.5H146.5L133.5 8.5L121 42.5Z" fill="#594CDA"/>
<path d="M142.5 45V44.5M142.5 44.5V42.5L121 42.5L133.5 8.5L146.5 44.5H149L133.5 2L118 44.5L142.5 44.5Z" stroke="#594CDA"/>
<path d="M78 45H104V43.0444H80V2.95556H104V1H78V45Z" fill="#594CDA" stroke="#594CDA"/>
</svg>
